# xmcd
#
# Track frame offsets:
#	150
#	12799
#	24062
#	40116
#	55425
#	71452
#	84716
#	100039
#	120394
#	133984
#	146036
#	174109
#
# Disc length: 2551 seconds
#
# Revision: 2
# Processed by: cddbd v1.5.2PL0 Copyright (c) Steve Scherf et al.
# Submitted via: audiograbber 1.83.01
#
DISCID=9409f50c
DTITLE=Karaokefun Best Of Country And Western Music Vol. 1 - Karaokefun Best Of
DTITLE=Country And Western Music Vol. 1
DYEAR=2003
DGENRE=Karaoke
TTITLE0=John Denver (made famous by ~) (karaoke) - Country roads
TTITLE1=Johnny Cash (made famous by ~) (karaoke) - Ring of fire
TTITLE2=Shania Twain (made famous by ~) (karaoke) - I'm holding on to love
TTITLE3=Jim Reeves (made famous by ~) (karaoke) - Memories are made of this
TTITLE4=Bob Dylan (made famous by ~) (karaoke) - Blowing in the wind
TTITLE5=Tom Jones (made famous by ~) (karaoke) - Green green grass of home
TTITLE6=Bellamy Brothers (made famous by ~) (karaoke) - I need more of you
TTITLE7=Janis Joplin (made famous by ~) (karaoke) - Me and Bobby McGee
TTITLE8=Nancy Sinatra and Lee Hazlewood (made famous by ~) (karaoke) - Jackson
TTITLE9=Tammy Wynette (made famous by ~) (karaoke) - Stand by your man
TTITLE10=Eagles (made famous by ~) (karaoke) - Hotel California
TTITLE11=Lynn Anderson (made famous by ~) (karaoke) - Blue bayou
EXTD=
EXTT0=Original: John Denver
EXTT1=Original: Johnny Cash
EXTT2=Original: Shania Twain
EXTT3=Original: Jim Reeves
EXTT4=Original: Bob Dylan
EXTT5=Original: Tom Jones
EXTT6=Original: Bellamy Brothers
EXTT7=Original: Janis Joplin
EXTT8=Original: Nancy Sinatra and Lee Hazlewood
EXTT9=Original: Tammy Wynette
EXTT10=Original: Eagles
EXTT11=Original: Lynn Anderson
PLAYORDER=
